<svg xmlns="http://www.w3.org/2000/svg" viewBox="0 0 1200 360" width="1200" height="360" role="img"><defs><linearGradient id="bg" x1="0" y1="0" x2="1" y2="1"><stop offset="0" stop-color="#0d0d10"/><stop offset="1" stop-color="#e01327"/></linearGradient><radialGradient id="gl" cx="0.5" cy="0.35" r="0.75"><stop offset="0" stop-color="#ff5065" stop-opacity="0.35"/><stop offset="1" stop-color="#ff5065" stop-opacity="0"/></radialGradient></defs><rect width="1200" height="360" fill="url(#bg)"/><rect width="1200" height="360" fill="url(#gl)"/><circle cx="647" cy="349" r="86" fill="#ff5065" opacity="0.073"/><circle cx="805" cy="-1" r="149" fill="#ff5065" opacity="0.075"/><circle cx="48" cy="101" r="79" fill="#ff5065" opacity="0.064"/><circle cx="820" cy="-2" r="53" fill="#ff5065" opacity="0.092"/><circle cx="-25" cy="381" r="146" fill="#ff5065" opacity="0.08"/><circle cx="54" cy="5" r="158" fill="#ff5065" opacity="0.061"/><circle cx="961" cy="113" r="156" fill="#ff5065" opacity="0.067"/><line x1="0" y1="44" x2="1200" y2="74" stroke="#ff5065" stroke-width="1" opacity="0.05"/><line x1="0" y1="269" x2="1200" y2="270" stroke="#ff5065" stroke-width="1" opacity="0.05"/><line x1="0" y1="220" x2="1200" y2="226" stroke="#ff5065" stroke-width="1" opacity="0.05"/><rect y="50" width="1200" height="260" fill="#000000" opacity="0.20"/><text x="600" y="148" text-anchor="middle" font-family="&#39;Segoe UI&#39;,&#39;Arial&#39;,sans-serif" font-size="78" font-weight="700" fill="#ffffff" textLength="936.0" lengthAdjust="spacingAndGlyphs">Camtasia Studio Full</text><text x="600" y="230.7" text-anchor="middle" font-family="&#39;Segoe UI&#39;,&#39;Arial&#39;,sans-serif" font-size="78" font-weight="700" fill="#ffffff" textLength="748.8" lengthAdjust="spacingAndGlyphs">Access + Product</text><rect x="530" y="252.7" width="140" height="4" rx="2" fill="#ff5065"/><text x="600" y="290.7" text-anchor="middle" font-family="&#39;Segoe UI&#39;,&#39;Arial&#39;,sans-serif" font-size="28.4" font-weight="400" fill="#ffffff" fill-opacity="0.85" textLength="1050.0" lengthAdjust="spacingAndGlyphs">Unlocks Camtasia Studio: product key, license patch, full access — one…</text></svg>